<svg width="160" height="59" viewBox="0 0 160 59" fill="none" xmlns="http://www.w3.org/2000/svg">
<rect width="160" height="59" rx="8" fill="#5700FF"/>
<path fill-rule="evenodd" clip-rule="evenodd" d="M19.5 22C19.5 20.3431 20.8431 19 22.5 19H23.8716C24.732 19 25.482 19.5856 25.6906 20.4202L26.7964 24.8434C26.9794 25.5753 26.7059 26.3455 26.1024 26.7982L24.8088 27.7684C24.6745 27.8691 24.6453 28.0167 24.683 28.1197C25.8185 31.2195 28.2805 33.6815 31.3803 34.817C31.4833 34.8547 31.6309 34.8255 31.7316 34.6912L32.7018 33.3976C33.1545 32.7941 33.9247 32.5206 34.6566 32.7036L39.0798 33.8094C39.9144 34.018 40.5 34.768 40.5 35.6284V37C40.5 38.6569 39.1569 40 37.5 40H35.25C26.5515 40 19.5 32.9485 19.5 24.25V22Z" fill="#FDFDFC"/>
<path d="M51.26 36V23.04H56.309C57.083 23.04 57.743 23.199 58.289 23.517C58.841 23.835 59.261 24.255 59.549 24.777C59.843 25.293 59.99 25.851 59.99 26.451C59.99 27.153 59.81 27.768 59.45 28.296C59.09 28.824 58.604 29.187 57.992 29.385L57.974 28.944C58.808 29.166 59.456 29.574 59.918 30.168C60.38 30.762 60.611 31.47 60.611 32.292C60.611 33.048 60.455 33.702 60.143 34.254C59.837 34.806 59.393 35.235 58.811 35.541C58.235 35.847 57.551 36 56.759 36H51.26ZM52.88 34.47H56.453C56.933 34.47 57.362 34.383 57.74 34.209C58.118 34.029 58.415 33.777 58.631 33.453C58.853 33.129 58.964 32.739 58.964 32.283C58.964 31.845 58.865 31.452 58.667 31.104C58.475 30.756 58.202 30.48 57.848 30.276C57.5 30.066 57.095 29.961 56.633 29.961H52.88V34.47ZM52.88 28.449H56.291C56.675 28.449 57.02 28.368 57.326 28.206C57.638 28.038 57.884 27.804 58.064 27.504C58.25 27.204 58.343 26.853 58.343 26.451C58.343 25.893 58.154 25.437 57.776 25.083C57.398 24.729 56.903 24.552 56.291 24.552H52.88V28.449ZM66.5445 36.27C65.5785 36.27 64.7445 36.051 64.0425 35.613C63.3465 35.175 62.8095 34.569 62.4315 33.795C62.0535 33.021 61.8645 32.133 61.8645 31.131C61.8645 30.111 62.0565 29.217 62.4405 28.449C62.8245 27.681 63.3675 27.084 64.0695 26.658C64.7715 26.226 65.5965 26.01 66.5445 26.01C67.5165 26.01 68.3535 26.229 69.0555 26.667C69.7575 27.099 70.2945 27.702 70.6665 28.476C71.0445 29.244 71.2335 30.129 71.2335 31.131C71.2335 32.145 71.0445 33.039 70.6665 33.813C70.2885 34.581 69.7485 35.184 69.0465 35.622C68.3445 36.054 67.5105 36.27 66.5445 36.27ZM66.5445 34.749C67.5525 34.749 68.3025 34.413 68.7945 33.741C69.2865 33.069 69.5325 32.199 69.5325 31.131C69.5325 30.033 69.2835 29.16 68.7855 28.512C68.2875 27.858 67.5405 27.531 66.5445 27.531C65.8665 27.531 65.3085 27.684 64.8705 27.99C64.4325 28.296 64.1055 28.719 63.8895 29.259C63.6735 29.799 63.5655 30.423 63.5655 31.131C63.5655 32.223 63.8175 33.099 64.3215 33.759C64.8255 34.419 65.5665 34.749 66.5445 34.749ZM77.3551 36.27C76.3891 36.27 75.5551 36.051 74.8531 35.613C74.1571 35.175 73.6201 34.569 73.2421 33.795C72.8641 33.021 72.6751 32.133 72.6751 31.131C72.6751 30.111 72.8671 29.217 73.2511 28.449C73.6351 27.681 74.1781 27.084 74.8801 26.658C75.5821 26.226 76.4071 26.01 77.3551 26.01C78.3271 26.01 79.1641 26.229 79.8661 26.667C80.5681 27.099 81.1051 27.702 81.4771 28.476C81.8551 29.244 82.0441 30.129 82.0441 31.131C82.0441 32.145 81.8551 33.039 81.4771 33.813C81.0991 34.581 80.5591 35.184 79.8571 35.622C79.1551 36.054 78.3211 36.27 77.3551 36.27ZM77.3551 34.749C78.3631 34.749 79.1131 34.413 79.6051 33.741C80.0971 33.069 80.3431 32.199 80.3431 31.131C80.3431 30.033 80.0941 29.16 79.5961 28.512C79.0981 27.858 78.3511 27.531 77.3551 27.531C76.6771 27.531 76.1191 27.684 75.6811 27.99C75.2431 28.296 74.9161 28.719 74.7001 29.259C74.4841 29.799 74.3761 30.423 74.3761 31.131C74.3761 32.223 74.6281 33.099 75.1321 33.759C75.6361 34.419 76.3771 34.749 77.3551 34.749ZM84.0166 36L84.0256 23.04H85.6456V30.96L89.7226 26.28H91.8016L87.5086 31.14L92.3056 36H90.0646L85.6456 31.32V36H84.0166ZM99.5679 36.27C98.8419 36.27 98.2329 36.138 97.7409 35.874C97.2549 35.604 96.8859 35.25 96.6339 34.812C96.3879 34.374 96.2649 33.894 96.2649 33.372C96.2649 32.862 96.3609 32.421 96.5529 32.049C96.7509 31.671 97.0269 31.359 97.3809 31.113C97.7349 30.861 98.1579 30.663 98.6499 30.519C99.1119 30.393 99.6279 30.285 100.198 30.195C100.774 30.099 101.356 30.012 101.944 29.934C102.532 29.856 103.081 29.781 103.591 29.709L103.015 30.042C103.033 29.178 102.859 28.539 102.493 28.125C102.133 27.711 101.509 27.504 100.621 27.504C100.033 27.504 99.5169 27.639 99.0729 27.909C98.6349 28.173 98.3259 28.605 98.1459 29.205L96.6249 28.746C96.8589 27.894 97.3119 27.225 97.9839 26.739C98.6559 26.253 99.5409 26.01 100.639 26.01C101.521 26.01 102.277 26.169 102.907 26.487C103.543 26.799 103.999 27.273 104.275 27.909C104.413 28.209 104.5 28.536 104.536 28.89C104.572 29.238 104.59 29.604 104.59 29.988V36H103.168V33.669L103.501 33.885C103.135 34.671 102.622 35.265 101.962 35.667C101.308 36.069 100.51 36.27 99.5679 36.27ZM99.8109 34.929C100.387 34.929 100.885 34.827 101.305 34.623C101.731 34.413 102.073 34.14 102.331 33.804C102.589 33.462 102.757 33.09 102.835 32.688C102.925 32.388 102.973 32.055 102.979 31.689C102.991 31.317 102.997 31.032 102.997 30.834L103.555 31.077C103.033 31.149 102.52 31.218 102.016 31.284C101.512 31.35 101.035 31.422 100.585 31.5C100.135 31.572 99.7299 31.659 99.3699 31.761C99.1059 31.845 98.8569 31.953 98.6229 32.085C98.3949 32.217 98.2089 32.388 98.0649 32.598C97.9269 32.802 97.8579 33.057 97.8579 33.363C97.8579 33.627 97.9239 33.879 98.0559 34.119C98.1939 34.359 98.4039 34.554 98.6859 34.704C98.9739 34.854 99.3489 34.929 99.8109 34.929ZM115.861 36.27C114.571 36.27 113.476 35.985 112.576 35.415C111.676 34.845 110.989 34.053 110.515 33.039C110.047 32.025 109.813 30.852 109.813 29.52C109.813 28.188 110.047 27.015 110.515 26.001C110.989 24.987 111.676 24.195 112.576 23.625C113.476 23.055 114.571 22.77 115.861 22.77C117.361 22.77 118.594 23.151 119.56 23.913C120.532 24.675 121.201 25.701 121.567 26.991L119.938 27.423C119.674 26.457 119.203 25.695 118.525 25.137C117.847 24.579 116.959 24.3 115.861 24.3C114.895 24.3 114.091 24.519 113.449 24.957C112.807 25.395 112.324 26.007 112 26.793C111.676 27.573 111.511 28.482 111.505 29.52C111.499 30.552 111.658 31.461 111.982 32.247C112.306 33.027 112.792 33.639 113.44 34.083C114.088 34.521 114.895 34.74 115.861 34.74C116.959 34.74 117.847 34.461 118.525 33.903C119.203 33.339 119.674 32.577 119.938 31.617L121.567 32.049C121.201 33.333 120.532 34.359 119.56 35.127C118.594 35.889 117.361 36.27 115.861 36.27ZM126.304 36.27C125.578 36.27 124.969 36.138 124.477 35.874C123.991 35.604 123.622 35.25 123.37 34.812C123.124 34.374 123.001 33.894 123.001 33.372C123.001 32.862 123.097 32.421 123.289 32.049C123.487 31.671 123.763 31.359 124.117 31.113C124.471 30.861 124.894 30.663 125.386 30.519C125.848 30.393 126.364 30.285 126.934 30.195C127.51 30.099 128.092 30.012 128.68 29.934C129.268 29.856 129.817 29.781 130.327 29.709L129.751 30.042C129.769 29.178 129.595 28.539 129.229 28.125C128.869 27.711 128.245 27.504 127.357 27.504C126.769 27.504 126.253 27.639 125.809 27.909C125.371 28.173 125.062 28.605 124.882 29.205L123.361 28.746C123.595 27.894 124.048 27.225 124.72 26.739C125.392 26.253 126.277 26.01 127.375 26.01C128.257 26.01 129.013 26.169 129.643 26.487C130.279 26.799 130.735 27.273 131.011 27.909C131.149 28.209 131.236 28.536 131.272 28.89C131.308 29.238 131.326 29.604 131.326 29.988V36H129.904V33.669L130.237 33.885C129.871 34.671 129.358 35.265 128.698 35.667C128.044 36.069 127.246 36.27 126.304 36.27ZM126.547 34.929C127.123 34.929 127.621 34.827 128.041 34.623C128.467 34.413 128.809 34.14 129.067 33.804C129.325 33.462 129.493 33.09 129.571 32.688C129.661 32.388 129.709 32.055 129.715 31.689C129.727 31.317 129.733 31.032 129.733 30.834L130.291 31.077C129.769 31.149 129.256 31.218 128.752 31.284C128.248 31.35 127.771 31.422 127.321 31.5C126.871 31.572 126.466 31.659 126.106 31.761C125.842 31.845 125.593 31.953 125.359 32.085C125.131 32.217 124.945 32.388 124.801 32.598C124.663 32.802 124.594 33.057 124.594 33.363C124.594 33.627 124.66 33.879 124.792 34.119C124.93 34.359 125.14 34.554 125.422 34.704C125.71 34.854 126.085 34.929 126.547 34.929ZM133.846 36V22.77H135.448V36H133.846ZM138.329 36V22.77H139.931V36H138.329Z" fill="#FDFDFC"/>
</svg>
