<svg width="66" height="66" viewBox="0 0 66 66" fill="none" xmlns="http://www.w3.org/2000/svg">
<g filter="url(#filter0_i_130_376)">
<rect width="66" height="66" rx="8" fill="#5700FF"/>
<path fill-rule="evenodd" clip-rule="evenodd" d="M31.2835 20.5477C31.9187 19.0206 34.082 19.0206 34.7171 20.5477L37.6666 27.6391L45.3224 28.2529C46.971 28.385 47.6395 30.4424 46.3835 31.5184L40.5506 36.5149L42.3326 43.9857C42.7164 45.5944 40.9662 46.866 39.5548 46.0039L33.0003 42.0005L26.4459 46.0039C25.0345 46.866 23.2843 45.5944 23.6681 43.9857L25.4501 36.5149L19.6172 31.5184C18.3611 30.4424 19.0296 28.385 20.6783 28.2529L28.3341 27.6391L31.2835 20.5477Z" fill="#FDFDFC"/>
</g>
<defs>
<filter id="filter0_i_130_376" x="0" y="0" width="66" height="66" filterUnits="userSpaceOnUse" color-interpolation-filters="sRGB">
<feFlood flood-opacity="0" result="BackgroundImageFix"/>
<feBlend mode="normal" in="SourceGraphic" in2="BackgroundImageFix" result="shape"/>
<feColorMatrix in="SourceAlpha" type="matrix" values="0 0 0 0 0 0 0 0 0 0 0 0 0 0 0 0 0 0 127 0" result="hardAlpha"/>
<feMorphology radius="4" operator="erode" in="SourceAlpha" result="effect1_innerShadow_130_376"/>
<feOffset/>
<feGaussianBlur stdDeviation="7"/>
<feComposite in2="hardAlpha" operator="arithmetic" k2="-1" k3="1"/>
<feColorMatrix type="matrix" values="0 0 0 0 1 0 0 0 0 1 0 0 0 0 1 0 0 0 0.5 0"/>
<feBlend mode="normal" in2="shape" result="effect1_innerShadow_130_376"/>
</filter>
</defs>
</svg>
