<svg width="28" height="28" viewBox="0 0 28 28" fill="none" xmlns="http://www.w3.org/2000/svg">
<path d="M23.2778 9.23953C23.292 9.44523 23.292 9.65093 23.292 9.85853C23.292 16.1841 18.4765 23.4794 9.67119 23.4794V23.4756C7.07007 23.4794 4.52297 22.7343 2.33325 21.3294C2.71148 21.375 3.0916 21.3977 3.47267 21.3986C5.62826 21.4005 7.72224 20.6773 9.41809 19.3454C7.36961 19.3066 5.57328 17.9709 4.94575 16.021C5.66334 16.1594 6.40272 16.131 7.10704 15.9386C4.87371 15.4873 3.26696 13.5251 3.26696 11.2463C3.26696 11.2254 3.26696 11.2055 3.26696 11.1856C3.93241 11.5563 4.67749 11.762 5.43962 11.7847C3.33616 10.3789 2.68778 7.58065 3.95801 5.39282C6.3885 8.38355 9.97453 10.2017 13.8241 10.3941C13.4383 8.73144 13.9653 6.98914 15.209 5.82034C17.1371 4.0079 20.1695 4.10079 21.982 6.02794C23.0541 5.81655 24.0816 5.42316 25.022 4.86578C24.6646 5.97391 23.9167 6.9152 22.9176 7.51335C23.8665 7.40149 24.7935 7.14745 25.6666 6.75974C25.0239 7.72284 24.2144 8.56176 23.2778 9.23953Z" fill="#5700FF"/>
</svg>
